<svg width="120" height="120" viewBox="0 0 120 120" fill="none" xmlns="http://www.w3.org/2000/svg">
<path d="M106.594 100.137L76.1602 69.7031C80.8828 63.5977 83.4375 56.1328 83.4375 48.2812C83.4375 38.8828 79.7695 30.0703 73.1367 23.4258C66.5039 16.7812 57.668 13.125 48.2812 13.125C38.8945 13.125 30.0586 16.793 23.4258 23.4258C16.7812 30.0586 13.125 38.8828 13.125 48.2812C13.125 57.668 16.793 66.5039 23.4258 73.1367C30.0586 79.7812 38.8828 83.4375 48.2812 83.4375C56.1328 83.4375 63.5859 80.8828 69.6914 76.1719L100.125 106.594C100.214 106.683 100.32 106.754 100.437 106.802C100.553 106.851 100.678 106.875 100.805 106.875C100.931 106.875 101.056 106.851 101.173 106.802C101.289 106.754 101.395 106.683 101.484 106.594L106.594 101.496C106.683 101.407 106.754 101.301 106.802 101.184C106.851 101.068 106.875 100.943 106.875 100.816C106.875 100.69 106.851 100.565 106.802 100.449C106.754 100.332 106.683 100.226 106.594 100.137V100.137ZM66.8437 66.8437C61.875 71.8008 55.2891 74.5312 48.2812 74.5312C41.2734 74.5312 34.6875 71.8008 29.7187 66.8437C24.7617 61.875 22.0312 55.2891 22.0312 48.2812C22.0312 41.2734 24.7617 34.6758 29.7187 29.7187C34.6875 24.7617 41.2734 22.0312 48.2812 22.0312C55.2891 22.0312 61.8867 24.75 66.8437 29.7187C71.8008 34.6875 74.5312 41.2734 74.5312 48.2812C74.5312 55.2891 71.8008 61.8867 66.8437 66.8437Z" fill="black"/>
</svg>
